<svg xmlns="http://www.w3.org/2000/svg" xmlns:xlink="http://www.w3.org/1999/xlink" version="1.1" x="0px" y="0px" viewBox="0 0 52.572 78.51" style="enable-background:new 0 0 52.572 62.808;" xml:space="preserve"><g><path d="M52.533,35.448l-0.014-0.184c-0.045-0.539-0.123-1.079-0.229-1.611c-0.215-1.069-0.551-2.114-0.996-3.102   c-0.877-1.971-2.246-3.763-3.963-5.183c-1.73-1.429-3.77-2.438-5.875-2.919c-0.508-0.123-1.047-0.216-1.604-0.282   c-0.279-0.038-0.648-0.063-1.008-0.086l-0.576-0.017L32.9,22.111l-3.461,0.076c-2.701,0.054-4.892,0.11-6.894,0.18l-8.982,0.278   c-0.049,0.005-0.102,0-0.166-0.007c-0.153-0.012-0.318-0.069-0.47-0.158c-0.349-0.213-0.605-0.566-0.654-0.9   c-0.005-0.028-0.01-0.062-0.017-0.098c0-0.007-0.002-0.017-0.004-0.025l-0.003-0.096l0.007-0.186c0-0.029,0-0.058,0-0.086   l0.021-0.194c0.002-0.019,0.004-0.037,0.006-0.056l0.026-0.126c0.069-0.311,0.188-0.597,0.364-0.875   c0.354-0.565,0.988-1.077,1.787-1.448c0.012-0.005,0.031-0.012,0.043-0.019c0.085-0.028,0.166-0.059,0.255-0.1l0.046-0.021l0,0   l0.539-0.177c0.018-0.005,0.03-0.008,0.046-0.013l1.134-0.295c0.658-0.174,1.28-0.336,1.957-0.489   c0.014-0.004,0.027-0.007,0.039-0.011c0.779-0.197,1.482-0.307,2.145-0.332c0.676-0.025,1.375,0.014,2.271,0.12l0.501,0.058   c1.165,0.131,2.266,0.256,3.354,0.256c0.399,0,0.766-0.017,1.098-0.049c0.914-0.076,1.66-0.207,2.334-0.415   c0.721-0.216,1.42-0.534,2.121-0.96c0.352-0.21,0.691-0.431,1.023-0.645c0.193-0.125,0.381-0.248,0.561-0.359   c0.488-0.3,0.957-0.572,1.406-0.834c1.986-1.154,3.436-2.096,4.314-2.692l1.096-0.759c0.012-0.008,0.025-0.017,0.039-0.026   l0.377-0.276c1.033-0.764,1.736-1.877,1.982-3.133c0.533-2.756-1.275-5.435-4.035-5.971l-0.445-0.086   c-0.02-0.003-0.037-0.007-0.057-0.01L37.27,0.937c-1.029-0.155-2.744-0.378-5.064-0.553l-1.646-0.137   c-0.221-0.021-0.443-0.049-0.672-0.075c-0.396-0.048-0.805-0.095-1.199-0.127c-0.842-0.077-1.633-0.054-2.364,0.069   c-0.71,0.116-1.443,0.33-2.312,0.673c-0.734,0.291-1.492,0.667-2.242,1.112c-0.463,0.272-0.924,0.575-1.367,0.864   c-0.251,0.166-0.504,0.332-0.762,0.496c-0.012,0.007-0.023,0.016-0.035,0.023c-1.423,0.956-2.779,1.578-4.179,1.906   C14.603,5.4,13.68,5.672,12.791,5.934l-1.007,0.295c-0.02,0.006-0.04,0.014-0.061,0.019l-0.229,0.077   c-0.016,0.005-0.032,0.01-0.048,0.017L10.72,6.609v0.002c-0.061,0.021-0.136,0.05-0.21,0.082l-0.542,0.23   c-0.279,0.12-0.569,0.247-0.841,0.387c-1.974,0.961-4.745,2.786-6.788,6.024c-0.9,1.427-1.573,3.045-1.944,4.691L0.38,18.098   c-0.081,0.367-0.172,0.783-0.22,1.189l-0.005,0.044c-0.052,0.383-0.111,0.817-0.124,1.249L0,21.309C0,21.336,0,21.364,0,21.392   L0.007,21.9c0,0.019,0,0.037,0.002,0.056l0.032,0.562c0.015,0.229,0.037,0.402,0.059,0.58l0.022,0.186   c0.258,1.904,0.906,3.757,1.874,5.355c1,1.658,2.369,3.123,3.96,4.234c1.61,1.122,3.505,1.911,5.483,2.282   c0.476,0.088,0.965,0.151,1.511,0.195c0.231,0.016,0.462,0.025,0.731,0.036l8.858,0.271c1.991,0.067,4.183,0.125,6.897,0.181   l3.48,0.076l3.479,0.039l1.566,0.008l0.193,0.005c0.01,0,0.018,0.002,0.025,0.002l0.061,0.009c0.006,0.001,0.014,0.003,0.02,0.005   c0.119,0.028,0.234,0.084,0.311,0.14c0.102,0.083,0.197,0.193,0.254,0.299c0.031,0.057,0.055,0.112,0.062,0.143   c0.008,0.023,0.012,0.049,0.018,0.074c0.002,0.022,0.006,0.046,0.01,0.069l0.004,0.037c0,0.002,0,0.005,0,0.009   c0,0.035,0,0.068,0,0.096c0,0.029,0,0.059,0,0.09c0,0.008,0,0.017,0,0.025L38.916,37c-0.008,0.057-0.021,0.109-0.045,0.168   c-0.053,0.13-0.137,0.253-0.258,0.362c-0.117,0.113-0.248,0.195-0.387,0.243c-0.08,0.025-0.158,0.043-0.242,0.052   c-0.006,0.002-0.012,0.002-0.018,0.004c-0.039,0.001-0.086,0.003-0.131,0.003l-7.684,0.307l-6.13,0.294l-5.804,0.318l-2.127,0.13   l-2.542,0.151c-0.023,0.002-0.049,0.003-0.072,0.005l-0.732,0.074c-0.177,0.019-0.358,0.041-0.504,0.067   c-2.751,0.438-5.3,1.784-7.171,3.783c-1.695,1.785-2.828,4.071-3.186,6.423c-0.09,0.56-0.139,1.115-0.146,1.631   c-0.008,0.257-0.005,0.523,0.009,0.786l0.007,0.239c0.001,0.046,0.005,0.091,0.01,0.135l0.056,0.499   c0.028,0.239,0.061,0.504,0.1,0.708l0.009,0.044c0.042,0.229,0.086,0.455,0.143,0.678c0.098,0.42,0.231,0.856,0.424,1.382   c0.602,1.608,1.552,3.04,2.831,4.26c0.998,0.946,2.13,1.689,3.363,2.211c0.898,0.377,1.821,0.627,2.825,0.762   c0.455,0.061,0.898,0.089,1.354,0.089c0.164,0,0.309-0.003,0.434-0.007c0.017-0.002,0.033-0.002,0.053-0.003l0.518-0.036   c1.47-0.101,2.68-1.187,2.938-2.635c0.15-0.844-0.035-1.697-0.525-2.401c-0.491-0.703-1.225-1.174-2.07-1.325l-0.467-0.084   c-0.178-0.039-0.412-0.095-0.688-0.195c-0.455-0.171-1.313-0.592-1.956-1.51c-0.284-0.409-0.492-0.918-0.597-1.471   c-0.021-0.132-0.042-0.277-0.045-0.385c-0.002-0.032-0.002-0.059-0.006-0.09c-0.002-0.033,0-0.066,0-0.101v-0.062   c0.006-0.063,0.012-0.128,0.014-0.209l0.009-0.146c0.001-0.003,0.001-0.009,0.003-0.014c0.002-0.01,0.009-0.06,0.01-0.069   c0.009-0.061,0.018-0.119,0.039-0.216c0.027-0.13,0.067-0.267,0.115-0.397c0.21-0.57,0.58-1.072,1.045-1.421   c0.443-0.337,0.982-0.522,1.519-0.522l10.826,0.629l6.129,0.293l6.4,0.263l1.303,0.044c0.109,0.005,0.217,0.009,0.402,0.009h0.066   c0.002,0,0.043,0,0.043,0c1,0,2.002-0.106,2.975-0.315c2.016-0.432,3.951-1.323,5.594-2.579c1.658-1.263,3.049-2.922,4.02-4.794   c0.49-0.946,0.877-1.954,1.146-2.998c0.143-0.564,0.246-1.082,0.316-1.594l0.047-0.366c0.004-0.022,0.006-0.042,0.008-0.064   l0.039-0.428c0.002-0.014,0.002-0.028,0.002-0.042l0.043-0.691c0.002-0.029,0.004-0.059,0.004-0.088v-0.33l-0.006-0.369   C52.562,35.873,52.549,35.661,52.533,35.448z M49.295,37.338l-0.076,0.7c-0.051,0.378-0.131,0.775-0.244,1.215   c-0.207,0.805-0.502,1.58-0.883,2.31c-0.752,1.453-1.828,2.738-3.109,3.712c-1.266,0.968-2.756,1.655-4.309,1.987   c-0.752,0.162-1.523,0.245-2.295,0.245c-0.002,0-0.045-0.002-0.049,0H38.27c-0.127,0-0.199-0.004-0.273-0.007l-7.689-0.307   l-6.107-0.29l-5.78-0.319l-5.017-0.312c-0.022-0.001-0.041-0.001-0.062-0.003h-0.132c-1.237,0-2.472,0.418-3.471,1.175   c-0.963,0.723-1.699,1.718-2.133,2.888c-0.104,0.285-0.187,0.574-0.237,0.819c-0.021,0.086-0.037,0.172-0.053,0.259   c-0.031,0.108-0.05,0.223-0.059,0.341l-0.023,0.422c-0.011,0.093-0.017,0.185-0.017,0.323v0.064c0,0.107,0.001,0.216,0.008,0.323   c0.011,0.304,0.053,0.577,0.084,0.777c0.002,0.017,0.006,0.032,0.009,0.049c0.188,1.013,0.58,1.966,1.133,2.758   c1.143,1.636,2.669,2.386,3.482,2.69c0.504,0.184,0.916,0.276,1.137,0.327c0.023,0.003,0.047,0.009,0.07,0.014l0.27,0.049   l-0.247,0.017c-0.086,0.002-0.184,0.005-0.294,0.005c-0.312,0-0.616-0.021-0.925-0.061c-0.712-0.096-1.366-0.272-1.996-0.539   c-0.873-0.368-1.679-0.897-2.389-1.569c-0.919-0.877-1.602-1.903-2.026-3.036c-0.144-0.395-0.242-0.717-0.311-1.01   c-0.003-0.014-0.006-0.027-0.01-0.041c-0.04-0.158-0.069-0.319-0.1-0.481l-0.01-0.051c-0.027-0.141-0.046-0.32-0.064-0.48   l-0.047-0.425l-0.007-0.2c-0.009-0.186-0.014-0.375-0.007-0.587c0.005-0.385,0.041-0.786,0.108-1.206   c0.259-1.716,1.089-3.381,2.341-4.699c1.395-1.486,3.289-2.484,5.338-2.809c0.015-0.002,0.029-0.005,0.045-0.007   c0.081-0.017,0.188-0.026,0.292-0.037l8.792-0.539l6.011-0.304l6.621-0.286l3.414-0.132c0.156-0.005,0.301-0.01,0.439-0.028   c0.303-0.037,0.604-0.104,0.883-0.201c0.586-0.195,1.121-0.521,1.564-0.943c0.455-0.417,0.82-0.948,1.047-1.519   c0.117-0.285,0.199-0.592,0.25-0.944c0.016-0.106,0.035-0.248,0.037-0.42c0.004-0.067,0.004-0.137-0.002-0.206   c0-0.062,0-0.133,0-0.182V36.52c0-0.154-0.023-0.303-0.061-0.442c-0.023-0.121-0.051-0.241-0.088-0.384   c-0.082-0.277-0.191-0.545-0.334-0.816c-0.275-0.5-0.654-0.949-1.131-1.323c-0.451-0.339-0.957-0.581-1.5-0.715   c-0.156-0.042-0.297-0.062-0.4-0.077c-0.105-0.019-0.217-0.03-0.336-0.032l-5.357-0.056l-3.445-0.076   c-2.702-0.052-4.88-0.109-6.861-0.179l-8.882-0.271c-0.195-0.009-0.39-0.016-0.569-0.027c-0.417-0.034-0.796-0.083-1.158-0.15   c-1.529-0.286-2.991-0.894-4.225-1.753c-1.223-0.853-2.272-1.979-3.041-3.253c-0.742-1.225-1.239-2.648-1.433-4.085l-0.024-0.188   c-0.013-0.114-0.028-0.228-0.038-0.379L3.239,21.39l0.029-0.691c0.01-0.281,0.052-0.599,0.098-0.934l0.01-0.074   c0.03-0.274,0.098-0.577,0.169-0.896l0.014-0.064c0.288-1.279,0.813-2.547,1.521-3.667c1.642-2.604,3.889-4.074,5.483-4.848   c0.015-0.008,0.03-0.016,0.044-0.023c0.17-0.09,0.411-0.192,0.644-0.293l0.568-0.241c0.01-0.004,0.021-0.007,0.028-0.011   l0.647-0.239l1.21-0.365c0.902-0.267,1.757-0.517,2.497-0.706c1.748-0.414,3.447-1.183,5.194-2.352   c0.264-0.169,0.527-0.341,0.787-0.512c0.428-0.283,0.834-0.548,1.233-0.783c0.612-0.364,1.214-0.663,1.787-0.891   c0.649-0.254,1.173-0.411,1.651-0.49c0.46-0.078,0.941-0.093,1.558-0.035c0.371,0.03,0.736,0.072,1.094,0.116   c0.246,0.028,0.488,0.058,0.756,0.084l1.688,0.139c2.232,0.17,3.863,0.381,4.818,0.524l1.297,0.21l0.43,0.085   c1.004,0.193,1.662,1.17,1.467,2.173c-0.088,0.456-0.346,0.862-0.727,1.143l-1.416,0.996c-0.824,0.558-2.207,1.456-4.109,2.562   c-0.469,0.271-0.959,0.56-1.484,0.88c-0.201,0.127-0.408,0.262-0.619,0.396c-0.295,0.191-0.6,0.389-0.934,0.586   c-0.477,0.292-0.928,0.499-1.387,0.638c-0.457,0.14-0.984,0.23-1.688,0.288c-0.248,0.025-0.512,0.035-0.807,0.035   c-0.907,0-1.919-0.114-2.989-0.234l-0.495-0.055c-0.838-0.102-1.574-0.15-2.251-0.15c-0.172,0-0.342,0.003-0.516,0.01   c-0.887,0.035-1.8,0.174-2.793,0.424c-0.723,0.164-1.396,0.34-2.045,0.51l-0.91,0.238c-0.096,0.017-0.188,0.04-0.276,0.067   l-0.729,0.239c-0.104,0.032-0.19,0.064-0.279,0.107l-0.056,0.024c-0.012,0.005-0.025,0.01-0.039,0.017l0.014-0.007   c-0.106,0.037-0.218,0.077-0.325,0.132c-1.383,0.641-2.479,1.561-3.171,2.665c-0.368,0.585-0.629,1.219-0.784,1.903l-0.01,0.05   c-0.029,0.127-0.069,0.311-0.085,0.533l-0.005,0.035c-0.014,0.114-0.033,0.281-0.03,0.48c-0.01,0.113-0.009,0.207-0.009,0.276   c0.002,0.042,0.002,0.084,0.007,0.125l0.007,0.188c0.002,0.026,0.002,0.054,0.005,0.08c0.007,0.085,0.021,0.164,0.037,0.24   c0.002,0.008,0.004,0.018,0.006,0.028c0.19,1.284,1.003,2.478,2.189,3.201c0.604,0.357,1.24,0.562,1.876,0.612   c0.171,0.013,0.341,0.02,0.516,0.013l9.002-0.278c1.989-0.067,4.167-0.124,6.858-0.178l3.445-0.074l3.455-0.041l1.832-0.005   l0.443,0.014c0.16,0.008,0.539,0.032,0.75,0.061c0.467,0.056,0.879,0.126,1.281,0.224c1.637,0.373,3.211,1.155,4.553,2.263   c1.332,1.101,2.393,2.486,3.07,4.011c0.348,0.771,0.609,1.584,0.775,2.412c0.082,0.411,0.143,0.832,0.176,1.221l0.01,0.164   c0.012,0.16,0.023,0.319,0.027,0.466l0.004,0.334L49.295,37.338z"/></g><text x="0" y="77.80799999999999" fill="#000000" font-size="5px" font-weight="bold" font-family="'Helvetica Neue', Helvetica, Arial-Unicode, Arial, Sans-serif">Created by Dabid J. Pascual</text><text x="0" y="82.80799999999999" fill="#000000" font-size="5px" font-weight="bold" font-family="'Helvetica Neue', Helvetica, Arial-Unicode, Arial, Sans-serif">from the Noun Project</text></svg>